<svg width="50" height="50" viewBox="0 0 50 50" fill="none" xmlns="http://www.w3.org/2000/svg">
<path d="M15.2636 22.5779C14.7728 22.5779 14.2929 22.7237 13.8848 22.9967C13.4767 23.2698 13.1586 23.658 12.9707 24.1121C12.7829 24.5662 12.7337 25.0659 12.8295 25.548C12.9253 26.03 13.1616 26.4729 13.5087 26.8204C13.8558 27.168 14.298 27.4047 14.7794 27.5006C15.2609 27.5965 15.7599 27.5473 16.2134 27.3592C16.6669 27.1711 17.0545 26.8525 17.3272 26.4438C17.5999 26.0351 17.7455 25.5547 17.7455 25.0631C17.7455 24.404 17.484 23.7719 17.0185 23.3058C16.5531 22.8397 15.9218 22.5779 15.2636 22.5779ZM25.1909 22.5779C24.7001 22.5779 24.2202 22.7237 23.8121 22.9967C23.404 23.2698 23.0859 23.658 22.898 24.1121C22.7102 24.5662 22.661 25.0659 22.7568 25.548C22.8525 26.03 23.0889 26.4729 23.436 26.8204C23.7831 27.168 24.2253 27.4047 24.7067 27.5006C25.1882 27.5965 25.6872 27.5473 26.1407 27.3592C26.5942 27.1711 26.9818 26.8525 27.2545 26.4438C27.5272 26.0351 27.6727 25.5547 27.6727 25.0631C27.6727 24.404 27.4113 23.7719 26.9458 23.3058C26.4804 22.8397 25.8491 22.5779 25.1909 22.5779ZM35.1182 22.5779C34.6274 22.5779 34.1475 22.7237 33.7394 22.9967C33.3313 23.2698 33.0132 23.658 32.8253 24.1121C32.6375 24.5662 32.5883 25.0659 32.6841 25.548C32.7798 26.03 33.0162 26.4729 33.3633 26.8204C33.7104 27.168 34.1526 27.4047 34.634 27.5006C35.1155 27.5965 35.6145 27.5473 36.068 27.3592C36.5215 27.1711 36.9091 26.8525 37.1818 26.4438C37.4545 26.0351 37.6 25.5547 37.6 25.0631C37.6 24.404 37.3386 23.7719 36.8731 23.3058C36.4077 22.8397 35.7764 22.5779 35.1182 22.5779ZM25.1909 0.211014C21.9317 0.211014 18.7045 0.853833 15.6934 2.10277C12.6823 3.3517 9.94637 5.1823 7.64178 7.49003C2.98746 12.1507 0.372688 18.4719 0.372688 25.0631C0.350991 30.8018 2.33529 36.3672 5.98161 40.7945L1.01796 45.7649C0.67359 46.1144 0.440308 46.5582 0.347552 47.0403C0.254796 47.5224 0.306722 48.0212 0.496779 48.4738C0.702914 48.921 1.03708 49.2967 1.45686 49.5534C1.87665 49.81 2.36311 49.936 2.85451 49.9152H25.1909C31.7731 49.9152 38.0857 47.2969 42.7401 42.6362C47.3944 37.9755 50.0092 31.6543 50.0092 25.0631C50.0092 18.4719 47.3944 12.1507 42.7401 7.49003C38.0857 2.82935 31.7731 0.211014 25.1909 0.211014ZM25.1909 44.9448H8.8357L11.1438 42.6336C11.3783 42.4034 11.5649 42.1289 11.6927 41.826C11.8205 41.5232 11.887 41.1979 11.8883 40.8691C11.879 40.2135 11.6114 39.5883 11.1438 39.1294C7.89407 35.8789 5.87036 31.6006 5.41747 27.0234C4.96458 22.4463 6.11052 17.8535 8.66006 14.0276C11.2096 10.2017 15.005 7.37925 19.3996 6.04125C23.7942 4.70325 28.5162 4.93243 32.761 6.68974C37.0058 8.44706 40.5108 11.6238 42.6789 15.6787C44.847 19.7336 45.544 24.4158 44.6512 28.9276C43.7584 33.4395 41.331 37.5017 37.7825 40.4223C34.2341 43.3429 29.7842 44.9412 25.1909 44.9448Z" fill="white"/>
</svg>
